<?xml version="1.0" standalone="no"?>
<!DOCTYPE svg PUBLIC "-//W3C//DTD SVG 20010904//EN"
 "http://www.w3.org/TR/2001/REC-SVG-20010904/DTD/svg10.dtd">
<svg version="1.0" xmlns="http://www.w3.org/2000/svg"
 width="920.000000pt" height="376.000000pt" viewBox="0 0 920.000000 376.000000"
 preserveAspectRatio="xMidYMid meet">

<g transform="translate(0.000000,376.000000) scale(0.100000,-0.100000)"
fill="#000000" stroke="none">
<path d="M0 1880 l0 -1880 4600 0 4600 0 0 1880 0 1880 -4600 0 -4600 0 0
-1880z m1806 352 c25 -13 49 -65 40 -88 -9 -23 -37 -13 -56 21 -14 26 -23 30
-62 33 -59 4 -78 -14 -78 -74 l0 -44 60 0 c53 0 60 -2 60 -20 0 -18 -7 -20
-60 -20 l-60 0 -2 -167 c-3 -160 -4 -168 -23 -168 -19 0 -20 8 -23 163 l-2
162 -28 0 c-34 0 -68 23 -58 38 4 7 22 12 40 12 33 0 33 0 39 57 7 66 35 101
88 112 38 8 93 0 125 -17z m2574 -258 c0 -267 0 -274 -20 -274 -13 0 -20 7
-20 20 0 11 -1 20 -3 20 -1 0 -20 -9 -42 -20 -74 -38 -179 -21 -223 35 -20 25
-22 40 -22 137 0 125 11 157 64 182 47 22 133 21 179 -3 l37 -19 0 92 c0 92 9
120 36 109 11 -4 14 -56 14 -279z m2499 272 c10 -11 3 -24 -33 -65 -57 -64
-80 -109 -96 -184 -24 -119 8 -244 91 -347 39 -49 47 -65 38 -76 -15 -18 -38
-5 -83 48 -95 111 -132 298 -86 432 21 63 74 140 121 181 36 29 33 29 48 11z
m743 -71 c26 -32 54 -79 63 -104 37 -106 28 -254 -21 -357 -45 -95 -127 -169
-149 -135 -3 5 17 37 45 72 81 101 112 218 90 340 -14 78 -37 124 -96 190 -36
41 -43 53 -33 65 17 20 41 3 101 -71z m-4143 37 c40 -21 73 -76 69 -112 -5
-39 -39 -33 -53 9 -17 52 -48 71 -115 71 -100 0 -119 -35 -120 -215 0 -174 21
-210 125 -210 72 0 100 17 113 69 6 21 14 31 28 31 16 0 19 -7 18 -39 -4 -126
-244 -158 -314 -43 -18 28 -20 51 -20 191 0 144 2 162 22 197 13 24 34 44 57
53 51 21 148 20 190 -2z m1685 4 c47 -19 76 -61 76 -107 0 -32 -4 -39 -19 -39
-13 0 -21 9 -26 29 -3 16 -17 41 -30 55 -21 22 -32 26 -84 26 -49 0 -65 -4
-88 -24 l-28 -24 -3 -155 -3 -155 29 -33 c24 -27 37 -33 83 -36 67 -5 107 17
124 67 14 42 39 46 43 8 4 -38 -23 -85 -61 -105 -48 -25 -168 -24 -204 3 -65
49 -68 60 -68 242 0 160 1 168 24 201 13 18 38 39 55 47 41 17 138 18 180 0z
m2112 -135 c11 -25 14 -57 11 -108 -4 -80 4 -90 38 -46 l22 26 23 -49 c45 -92
24 -192 -56 -264 l-27 -25 22 37 c13 22 21 49 19 65 -3 24 -8 28 -40 31 -55 5
-68 29 -68 128 0 44 -3 84 -6 87 -9 8 -110 -156 -125 -202 -6 -18 -9 -55 -7
-81 l5 -48 -33 40 c-39 45 -58 107 -50 154 4 17 32 74 63 125 65 108 93 174
96 231 l2 40 48 -52 c26 -29 55 -68 63 -89z m-1687 -5 c42 -22 51 -55 51 -186
0 -116 1 -120 25 -136 27 -18 33 -40 13 -47 -16 -5 -71 13 -79 25 -3 5 -24 0
-45 -11 -71 -38 -174 -21 -211 35 -26 41 -22 99 12 134 41 43 105 57 177 38
l58 -15 0 41 c0 23 -4 46 -8 52 -15 22 -52 34 -111 34 -52 0 -62 -3 -80 -26
-12 -15 -21 -33 -21 -40 0 -16 -36 -19 -45 -4 -11 18 16 80 41 97 53 34 164
39 223 9z m631 -12 c0 -10 12 -8 46 8 36 15 61 19 111 16 56 -3 68 -8 96 -36
32 -32 32 -33 35 -145 3 -99 0 -116 -18 -145 -38 -61 -143 -81 -227 -42 l-43
19 0 -94 c0 -87 -2 -95 -19 -95 -10 0 -22 7 -25 16 -3 9 -6 124 -6 255 0 246
6 293 36 268 8 -6 14 -17 14 -25z m-3990 16 c21 -11 45 -73 36 -95 -9 -25 -32
-17 -47 18 -20 46 -68 50 -109 8 -30 -29 -30 -31 -30 -140 l0 -111 44 0 c57 0
76 -8 76 -30 0 -26 -19 -30 -128 -30 -116 0 -142 6 -142 31 0 16 8 19 50 19
l50 0 0 144 0 145 -47 3 c-35 2 -48 7 -48 18 0 12 16 16 68 18 61 3 69 1 74
-17 5 -18 6 -18 40 5 38 25 82 31 113 14z m390 -8 c19 -10 43 -34 52 -53 23
-44 24 -125 2 -133 -9 -3 -74 -6 -145 -6 l-129 0 0 -36 c0 -26 8 -43 30 -66
29 -29 34 -30 103 -26 58 3 80 9 111 30 42 29 56 28 56 -1 0 -69 -184 -107
-280 -58 -59 29 -73 69 -68 194 3 81 6 94 28 118 14 15 39 34 55 41 45 20 144
18 185 -4z m419 0 c46 -23 70 -57 77 -113 10 -73 -2 -79 -157 -79 l-129 0 0
-39 c0 -64 25 -84 109 -89 66 -4 76 -2 121 26 39 25 51 28 60 17 17 -21 -31
-70 -84 -85 -64 -18 -169 -9 -203 16 -45 33 -53 60 -53 174 0 82 4 111 16 129
39 56 173 80 243 43z m878 -8 c44 -32 53 -60 53 -162 0 -153 -28 -191 -150
-200 -84 -6 -149 15 -177 56 -26 40 -26 235 0 276 28 43 70 57 164 54 64 -2
87 -7 110 -24z m822 8 c19 -10 43 -34 53 -53 23 -43 25 -124 2 -133 -9 -3 -74
-6 -145 -6 l-129 0 0 -30 c0 -75 43 -105 142 -98 48 3 73 10 103 31 45 31 66
23 47 -17 -16 -37 -68 -59 -148 -64 -57 -4 -80 0 -118 16 -65 29 -79 65 -74
193 3 88 6 100 28 124 14 15 39 34 55 41 45 20 144 18 184 -4z m1037 3 c5 -13
8 -13 27 0 30 21 80 19 102 -5 17 -19 18 -19 43 0 32 26 92 26 123 1 24 -19
24 -22 24 -193 0 -166 -1 -173 -20 -173 -19 0 -20 8 -23 154 -1 93 -7 160 -13
168 -16 18 -59 16 -81 -4 -16 -14 -18 -34 -18 -170 0 -143 -1 -153 -19 -153
-26 0 -31 25 -31 186 0 150 -1 154 -49 154 -42 0 -50 -28 -53 -185 -3 -147 -3
-150 -25 -153 l-23 -3 0 195 c0 169 2 196 15 196 9 0 18 -7 21 -15z"/>
<path d="M4145 2029 c-39 -22 -45 -40 -45 -136 0 -86 2 -96 25 -118 20 -21 34
-25 86 -25 46 0 68 5 90 21 29 20 29 21 29 124 0 101 0 103 -27 121 -33 21
-129 29 -158 13z"/>
<path d="M5402 1864 c-15 -10 -22 -25 -22 -49 0 -24 7 -39 22 -49 33 -23 113
-21 154 5 29 18 34 26 34 59 0 44 -11 50 -105 50 -39 0 -69 -6 -83 -16z"/>
<path d="M6260 2018 l-35 -24 -3 -100 -3 -101 50 -22 c69 -29 135 -28 166 4
23 22 25 32 25 118 0 124 -11 139 -101 145 -55 3 -69 0 -99 -20z"/>
<path d="M2429 2011 c-16 -16 -29 -39 -29 -50 0 -20 5 -21 120 -21 l120 0 0
24 c0 15 -12 34 -31 50 -25 22 -41 26 -91 26 -53 0 -63 -3 -89 -29z"/>
<path d="M2875 2028 c-29 -15 -45 -39 -45 -65 0 -23 1 -23 120 -23 66 0 120 2
120 5 0 20 -32 75 -48 84 -26 14 -121 14 -147 -1z"/>
<path d="M3715 2029 c-32 -20 -35 -29 -35 -135 0 -123 9 -135 100 -142 117 -9
144 24 139 162 -5 110 -14 120 -112 124 -43 1 -80 -2 -92 -9z"/>
<path d="M4549 2011 c-16 -16 -29 -39 -29 -50 0 -20 5 -21 120 -21 115 0 120
1 120 21 0 11 -13 34 -29 50 -26 26 -36 29 -91 29 -55 0 -65 -3 -91 -29z"/>
</g>
</svg>
